# xmcd
#
# Track frame offsets: 
#        150
#        15931
#        31923
#        44712
#        60160
#        75653
#        87008
#        101641
#        117778
#
# Disc length: 1727 seconds
#
# Revision: 0
# Processed by: cddbd v1.5.2PL0 Copyright (c) Steve Scherf et al.
# Submitted via: ExactAudioCopy v1.3
#
DISCID=5c06bd09
DTITLE=Jersey Swamp Cats - Go Cat Go!
DYEAR=2019
DGENRE=Jump Blues
TTITLE0=Jump, Jive And Wail
TTITLE1=Cupcake!
TTITLE2=Blue Monday
TTITLE3=I Don't Mind
TTITLE4=Too Tired
TTITLE5=Dance All Night
TTITLE6=Tootie Ma Is A Big Fine Thing
TTITLE7=I Get Evil
TTITLE8=Shiny Gray Corvette
EXTD=
EXTT0=
EXTT1=
EXTT2=
EXTT3=
EXTT4=
EXTT5=
EXTT6=
EXTT7=
EXTT8=
PLAYORDER=
